# xmcd
#
# Track frame offsets:
# 182
# 18620
# 35895
# 54055
# 67915
# 80855
# 93782
# 108730
# 125715
# 146622
# 161582
# 177550
# 196467
# 211920
# 227062
# 240890
# 260675
# 276810
# 292560
# 304887
#
# Disc length: 4277 seconds
#
#
# Revision: 0
# Processed by: cddbd v1.5.2PL0 Copyright (c) Steve Scherf et al.
# Submitted via: FreeRIP 2.951 
#
DISCID=2010b314
DTITLE=Manolo Otero - Convit para ouvir Manolo Otero
DYEAR=1900
DGENRE=Latin
TTITLE0=Meu Refrao
TTITLE1=Pedro Pedreiro
TTITLE2=Ole Ola
TTITLE3=Januaria
TTITLE4=A Banda
TTITLE5=A Rita
TTITLE6=Quem Te Viu  Quem Te Ve
TTITLE7=Madalena Foi Pro Mar
TTITLE8=Carolina
TTITLE9=Sonho De Um Carnaval
TTITLE10=Amanha  Ninguem Sabe
TTITLE11=Bom Tempo
TTITLE12=Retrato Em Branco E Preto
TTITLE13=Realejo
TTITLE14=Funeral De Um Lavrador
TTITLE15=Sabia
TTITLE16=Ate 2a Feira
TTITLE17=Tem Mais Samba
TTITLE18=Roda Viva
TTITLE19=Noite Dos Mascarados
EXTD=
EXTT0=
EXTT1=
EXTT2=
EXTT3=
EXTT4=
EXTT5=
EXTT6=
EXTT7=
EXTT8=
EXTT9=
EXTT10=
EXTT11=
EXTT12=
EXTT13=
EXTT14=
EXTT15=
EXTT16=
EXTT17=
EXTT18=
EXTT19=
PLAYORDER=
